<mxfile host="app.diagrams.net" modified="2022-11-24T10:42:02.737Z" agent="5.0 (Windows NT 10.0; Win64; x64) AppleWebKit/537.36 (KHTML, like Gecko) Chrome/107.0.0.0 Safari/537.36 Edg/107.0.1418.56" version="20.6.0" etag="WObLqsRt7WnocTfF5yED" type="github">
  <diagram id="PrMrUVkNOAF2edyRs3bH" name="หน้า-1">
    <mxGraphModel dx="1468" dy="864" grid="1" gridSize="10" guides="1" tooltips="1" connect="1" arrows="1" fold="1" page="1" pageScale="1" pageWidth="827" pageHeight="1169" math="0" shadow="0">
      <root>
        <mxCell id="0" />
        <mxCell id="1" parent="0" />
        <mxCell id="IXUGLaKaAVVbTnulbap0-3" value="" style="edgeStyle=orthogonalEdgeStyle;rounded=0;orthogonalLoop=1;jettySize=auto;html=1;fontSize=16;" edge="1" parent="1" source="IXUGLaKaAVVbTnulbap0-1" target="IXUGLaKaAVVbTnulbap0-2">
          <mxGeometry relative="1" as="geometry" />
        </mxCell>
        <mxCell id="IXUGLaKaAVVbTnulbap0-1" value="&lt;font style=&quot;font-size: 16px;&quot;&gt;เริ่ม&lt;/font&gt;" style="rounded=1;whiteSpace=wrap;html=1;" vertex="1" parent="1">
          <mxGeometry x="354" y="30" width="120" height="60" as="geometry" />
        </mxCell>
        <mxCell id="IXUGLaKaAVVbTnulbap0-23" value="" style="edgeStyle=orthogonalEdgeStyle;rounded=0;orthogonalLoop=1;jettySize=auto;html=1;fontSize=16;" edge="1" parent="1" source="IXUGLaKaAVVbTnulbap0-2" target="IXUGLaKaAVVbTnulbap0-22">
          <mxGeometry relative="1" as="geometry" />
        </mxCell>
        <mxCell id="IXUGLaKaAVVbTnulbap0-2" value="&lt;font style=&quot;font-size: 16px;&quot;&gt;ตื่นนอน&lt;/font&gt;" style="whiteSpace=wrap;html=1;rounded=1;" vertex="1" parent="1">
          <mxGeometry x="354" y="110" width="120" height="60" as="geometry" />
        </mxCell>
        <mxCell id="IXUGLaKaAVVbTnulbap0-7" value="" style="edgeStyle=orthogonalEdgeStyle;rounded=0;orthogonalLoop=1;jettySize=auto;html=1;fontSize=16;" edge="1" parent="1" source="IXUGLaKaAVVbTnulbap0-4" target="IXUGLaKaAVVbTnulbap0-6">
          <mxGeometry relative="1" as="geometry" />
        </mxCell>
        <mxCell id="IXUGLaKaAVVbTnulbap0-4" value="พับผ้าห่ม" style="whiteSpace=wrap;html=1;rounded=1;" vertex="1" parent="1">
          <mxGeometry x="354" y="320" width="120" height="60" as="geometry" />
        </mxCell>
        <mxCell id="IXUGLaKaAVVbTnulbap0-9" value="" style="edgeStyle=orthogonalEdgeStyle;rounded=0;orthogonalLoop=1;jettySize=auto;html=1;fontSize=16;" edge="1" parent="1" source="IXUGLaKaAVVbTnulbap0-6" target="IXUGLaKaAVVbTnulbap0-8">
          <mxGeometry relative="1" as="geometry" />
        </mxCell>
        <mxCell id="IXUGLaKaAVVbTnulbap0-6" value="อาบน้ำ" style="whiteSpace=wrap;html=1;rounded=1;" vertex="1" parent="1">
          <mxGeometry x="354" y="400" width="120" height="60" as="geometry" />
        </mxCell>
        <mxCell id="IXUGLaKaAVVbTnulbap0-37" value="" style="edgeStyle=orthogonalEdgeStyle;rounded=0;orthogonalLoop=1;jettySize=auto;html=1;fontSize=16;" edge="1" parent="1" source="IXUGLaKaAVVbTnulbap0-8" target="IXUGLaKaAVVbTnulbap0-36">
          <mxGeometry relative="1" as="geometry" />
        </mxCell>
        <mxCell id="IXUGLaKaAVVbTnulbap0-8" value="จัดตรางเรียน" style="whiteSpace=wrap;html=1;rounded=1;" vertex="1" parent="1">
          <mxGeometry x="354" y="480" width="120" height="60" as="geometry" />
        </mxCell>
        <mxCell id="IXUGLaKaAVVbTnulbap0-13" value="" style="edgeStyle=orthogonalEdgeStyle;rounded=0;orthogonalLoop=1;jettySize=auto;html=1;fontSize=16;" edge="1" parent="1" source="IXUGLaKaAVVbTnulbap0-10" target="IXUGLaKaAVVbTnulbap0-12">
          <mxGeometry relative="1" as="geometry" />
        </mxCell>
        <mxCell id="IXUGLaKaAVVbTnulbap0-10" value="กินข้าว" style="whiteSpace=wrap;html=1;rounded=1;" vertex="1" parent="1">
          <mxGeometry x="460" y="670" width="120" height="60" as="geometry" />
        </mxCell>
        <mxCell id="IXUGLaKaAVVbTnulbap0-15" value="" style="edgeStyle=orthogonalEdgeStyle;rounded=0;orthogonalLoop=1;jettySize=auto;html=1;fontSize=16;" edge="1" parent="1" source="IXUGLaKaAVVbTnulbap0-12" target="IXUGLaKaAVVbTnulbap0-14">
          <mxGeometry relative="1" as="geometry" />
        </mxCell>
        <mxCell id="IXUGLaKaAVVbTnulbap0-16" value="ใช้" style="edgeLabel;html=1;align=center;verticalAlign=middle;resizable=0;points=[];fontSize=16;" vertex="1" connectable="0" parent="IXUGLaKaAVVbTnulbap0-15">
          <mxGeometry x="-0.2444" y="-1" relative="1" as="geometry">
            <mxPoint as="offset" />
          </mxGeometry>
        </mxCell>
        <mxCell id="IXUGLaKaAVVbTnulbap0-43" style="edgeStyle=orthogonalEdgeStyle;rounded=0;orthogonalLoop=1;jettySize=auto;html=1;entryX=0.75;entryY=0;entryDx=0;entryDy=0;fontSize=16;exitX=1;exitY=0.5;exitDx=0;exitDy=0;" edge="1" parent="1" source="IXUGLaKaAVVbTnulbap0-12" target="IXUGLaKaAVVbTnulbap0-10">
          <mxGeometry relative="1" as="geometry">
            <Array as="points">
              <mxPoint x="660" y="800" />
              <mxPoint x="660" y="650" />
              <mxPoint x="550" y="650" />
            </Array>
          </mxGeometry>
        </mxCell>
        <mxCell id="IXUGLaKaAVVbTnulbap0-44" value="ไม่ใช่" style="edgeLabel;html=1;align=center;verticalAlign=middle;resizable=0;points=[];fontSize=16;" vertex="1" connectable="0" parent="IXUGLaKaAVVbTnulbap0-43">
          <mxGeometry x="-0.2188" y="1" relative="1" as="geometry">
            <mxPoint as="offset" />
          </mxGeometry>
        </mxCell>
        <mxCell id="IXUGLaKaAVVbTnulbap0-12" value="กินอิ่ม" style="rhombus;whiteSpace=wrap;html=1;rounded=1;" vertex="1" parent="1">
          <mxGeometry x="480" y="760" width="80" height="80" as="geometry" />
        </mxCell>
        <mxCell id="IXUGLaKaAVVbTnulbap0-54" value="" style="edgeStyle=orthogonalEdgeStyle;rounded=0;orthogonalLoop=1;jettySize=auto;html=1;fontSize=16;" edge="1" parent="1" source="IXUGLaKaAVVbTnulbap0-14" target="IXUGLaKaAVVbTnulbap0-53">
          <mxGeometry relative="1" as="geometry" />
        </mxCell>
        <mxCell id="IXUGLaKaAVVbTnulbap0-14" value="รอรถ" style="whiteSpace=wrap;html=1;rounded=1;" vertex="1" parent="1">
          <mxGeometry x="220" y="770" width="120" height="60" as="geometry" />
        </mxCell>
        <mxCell id="IXUGLaKaAVVbTnulbap0-33" value="ไม่ใช่" style="edgeStyle=orthogonalEdgeStyle;rounded=0;orthogonalLoop=1;jettySize=auto;html=1;fontSize=16;" edge="1" parent="1" source="IXUGLaKaAVVbTnulbap0-22" target="IXUGLaKaAVVbTnulbap0-4">
          <mxGeometry relative="1" as="geometry" />
        </mxCell>
        <mxCell id="IXUGLaKaAVVbTnulbap0-34" style="edgeStyle=orthogonalEdgeStyle;rounded=0;orthogonalLoop=1;jettySize=auto;html=1;entryX=1;entryY=0.5;entryDx=0;entryDy=0;fontSize=16;exitX=1;exitY=0.5;exitDx=0;exitDy=0;" edge="1" parent="1" source="IXUGLaKaAVVbTnulbap0-22" target="IXUGLaKaAVVbTnulbap0-6">
          <mxGeometry relative="1" as="geometry">
            <Array as="points">
              <mxPoint x="510" y="220" />
              <mxPoint x="510" y="430" />
            </Array>
          </mxGeometry>
        </mxCell>
        <mxCell id="IXUGLaKaAVVbTnulbap0-35" value="ใช่" style="edgeLabel;html=1;align=center;verticalAlign=middle;resizable=0;points=[];fontSize=16;" vertex="1" connectable="0" parent="IXUGLaKaAVVbTnulbap0-34">
          <mxGeometry x="-0.1549" y="-3" relative="1" as="geometry">
            <mxPoint y="-1" as="offset" />
          </mxGeometry>
        </mxCell>
        <mxCell id="IXUGLaKaAVVbTnulbap0-22" value="ตื่นสาย" style="rhombus;whiteSpace=wrap;html=1;rounded=1;" vertex="1" parent="1">
          <mxGeometry x="374" y="180" width="80" height="80" as="geometry" />
        </mxCell>
        <mxCell id="IXUGLaKaAVVbTnulbap0-38" style="edgeStyle=orthogonalEdgeStyle;rounded=0;orthogonalLoop=1;jettySize=auto;html=1;entryX=0.5;entryY=0;entryDx=0;entryDy=0;fontSize=16;" edge="1" parent="1" source="IXUGLaKaAVVbTnulbap0-36" target="IXUGLaKaAVVbTnulbap0-10">
          <mxGeometry relative="1" as="geometry" />
        </mxCell>
        <mxCell id="IXUGLaKaAVVbTnulbap0-75" value="ใช่" style="edgeLabel;html=1;align=center;verticalAlign=middle;resizable=0;points=[];fontSize=13;" vertex="1" connectable="0" parent="IXUGLaKaAVVbTnulbap0-38">
          <mxGeometry x="-0.0547" y="2" relative="1" as="geometry">
            <mxPoint x="-2" y="7" as="offset" />
          </mxGeometry>
        </mxCell>
        <mxCell id="IXUGLaKaAVVbTnulbap0-50" value="" style="edgeStyle=orthogonalEdgeStyle;rounded=0;orthogonalLoop=1;jettySize=auto;html=1;fontSize=16;entryX=0.5;entryY=0;entryDx=0;entryDy=0;" edge="1" parent="1" source="IXUGLaKaAVVbTnulbap0-36" target="IXUGLaKaAVVbTnulbap0-49">
          <mxGeometry relative="1" as="geometry" />
        </mxCell>
        <mxCell id="IXUGLaKaAVVbTnulbap0-76" value="ไม่ใช่" style="edgeLabel;html=1;align=center;verticalAlign=middle;resizable=0;points=[];fontSize=13;" vertex="1" connectable="0" parent="IXUGLaKaAVVbTnulbap0-50">
          <mxGeometry x="0.3974" y="-3" relative="1" as="geometry">
            <mxPoint y="1" as="offset" />
          </mxGeometry>
        </mxCell>
        <mxCell id="IXUGLaKaAVVbTnulbap0-36" value="มีข้าว" style="rhombus;whiteSpace=wrap;html=1;rounded=1;" vertex="1" parent="1">
          <mxGeometry x="374" y="550" width="80" height="80" as="geometry" />
        </mxCell>
        <mxCell id="IXUGLaKaAVVbTnulbap0-51" style="edgeStyle=orthogonalEdgeStyle;rounded=0;orthogonalLoop=1;jettySize=auto;html=1;fontSize=16;exitX=1;exitY=0.5;exitDx=0;exitDy=0;entryX=0.25;entryY=0;entryDx=0;entryDy=0;" edge="1" parent="1" source="IXUGLaKaAVVbTnulbap0-49" target="IXUGLaKaAVVbTnulbap0-10">
          <mxGeometry relative="1" as="geometry">
            <mxPoint x="450" y="700" as="targetPoint" />
            <Array as="points">
              <mxPoint x="400" y="680" />
              <mxPoint x="400" y="650" />
              <mxPoint x="490" y="650" />
            </Array>
          </mxGeometry>
        </mxCell>
        <mxCell id="IXUGLaKaAVVbTnulbap0-49" value="ไปชื้อข้าว" style="whiteSpace=wrap;html=1;rounded=1;" vertex="1" parent="1">
          <mxGeometry x="220" y="650" width="120" height="60" as="geometry" />
        </mxCell>
        <mxCell id="IXUGLaKaAVVbTnulbap0-55" value="ไม่ใช่" style="edgeStyle=orthogonalEdgeStyle;rounded=0;orthogonalLoop=1;jettySize=auto;html=1;entryX=0;entryY=0.5;entryDx=0;entryDy=0;fontSize=16;exitX=0;exitY=0.5;exitDx=0;exitDy=0;" edge="1" parent="1" source="IXUGLaKaAVVbTnulbap0-53" target="IXUGLaKaAVVbTnulbap0-14">
          <mxGeometry relative="1" as="geometry" />
        </mxCell>
        <mxCell id="IXUGLaKaAVVbTnulbap0-61" value="ใช่" style="edgeStyle=orthogonalEdgeStyle;rounded=0;orthogonalLoop=1;jettySize=auto;html=1;fontSize=16;" edge="1" parent="1" source="IXUGLaKaAVVbTnulbap0-53" target="IXUGLaKaAVVbTnulbap0-58">
          <mxGeometry relative="1" as="geometry" />
        </mxCell>
        <mxCell id="IXUGLaKaAVVbTnulbap0-53" value="รถมาแล้ว" style="rhombus;whiteSpace=wrap;html=1;rounded=1;" vertex="1" parent="1">
          <mxGeometry x="240" y="860" width="80" height="80" as="geometry" />
        </mxCell>
        <mxCell id="IXUGLaKaAVVbTnulbap0-72" style="edgeStyle=orthogonalEdgeStyle;rounded=0;orthogonalLoop=1;jettySize=auto;html=1;entryX=0;entryY=0.5;entryDx=0;entryDy=0;fontSize=13;" edge="1" parent="1" source="IXUGLaKaAVVbTnulbap0-58" target="IXUGLaKaAVVbTnulbap0-71">
          <mxGeometry relative="1" as="geometry" />
        </mxCell>
        <mxCell id="IXUGLaKaAVVbTnulbap0-58" value="ขึ้นรถ" style="whiteSpace=wrap;html=1;rounded=1;fontSize=16;" vertex="1" parent="1">
          <mxGeometry x="390" y="870" width="90" height="60" as="geometry" />
        </mxCell>
        <mxCell id="IXUGLaKaAVVbTnulbap0-70" style="edgeStyle=orthogonalEdgeStyle;rounded=0;orthogonalLoop=1;jettySize=auto;html=1;entryX=0;entryY=0.25;entryDx=0;entryDy=0;fontSize=13;exitX=0.5;exitY=0;exitDx=0;exitDy=0;" edge="1" parent="1" source="IXUGLaKaAVVbTnulbap0-66" target="IXUGLaKaAVVbTnulbap0-71">
          <mxGeometry relative="1" as="geometry">
            <Array as="points">
              <mxPoint x="710" y="850" />
              <mxPoint x="490" y="850" />
              <mxPoint x="490" y="885" />
            </Array>
          </mxGeometry>
        </mxCell>
        <mxCell id="IXUGLaKaAVVbTnulbap0-74" value="ไม่ใช่" style="edgeLabel;html=1;align=center;verticalAlign=middle;resizable=0;points=[];fontSize=13;" vertex="1" connectable="0" parent="IXUGLaKaAVVbTnulbap0-70">
          <mxGeometry x="-0.3765" y="-3" relative="1" as="geometry">
            <mxPoint as="offset" />
          </mxGeometry>
        </mxCell>
        <mxCell id="IXUGLaKaAVVbTnulbap0-77" style="edgeStyle=orthogonalEdgeStyle;rounded=0;orthogonalLoop=1;jettySize=auto;html=1;entryX=1;entryY=0.5;entryDx=0;entryDy=0;fontSize=13;exitX=0.5;exitY=1;exitDx=0;exitDy=0;" edge="1" parent="1" source="IXUGLaKaAVVbTnulbap0-66" target="IXUGLaKaAVVbTnulbap0-68">
          <mxGeometry relative="1" as="geometry" />
        </mxCell>
        <mxCell id="IXUGLaKaAVVbTnulbap0-66" value="&lt;font style=&quot;font-size: 13px;&quot;&gt;ถึงโรงเรียน&lt;/font&gt;" style="rhombus;whiteSpace=wrap;html=1;fontSize=16;rounded=1;" vertex="1" parent="1">
          <mxGeometry x="670" y="860" width="80" height="80" as="geometry" />
        </mxCell>
        <mxCell id="IXUGLaKaAVVbTnulbap0-79" value="" style="edgeStyle=orthogonalEdgeStyle;rounded=0;orthogonalLoop=1;jettySize=auto;html=1;fontSize=13;" edge="1" parent="1" source="IXUGLaKaAVVbTnulbap0-68" target="IXUGLaKaAVVbTnulbap0-78">
          <mxGeometry relative="1" as="geometry" />
        </mxCell>
        <mxCell id="IXUGLaKaAVVbTnulbap0-68" value="ลงรถ" style="whiteSpace=wrap;html=1;fontSize=16;rounded=1;" vertex="1" parent="1">
          <mxGeometry x="520" y="970" width="120" height="60" as="geometry" />
        </mxCell>
        <mxCell id="IXUGLaKaAVVbTnulbap0-73" style="edgeStyle=orthogonalEdgeStyle;rounded=0;orthogonalLoop=1;jettySize=auto;html=1;fontSize=13;" edge="1" parent="1" source="IXUGLaKaAVVbTnulbap0-71">
          <mxGeometry relative="1" as="geometry">
            <mxPoint x="670" y="900" as="targetPoint" />
          </mxGeometry>
        </mxCell>
        <mxCell id="IXUGLaKaAVVbTnulbap0-71" value="รอรถถึงโรงเรียน" style="rounded=1;whiteSpace=wrap;html=1;fontSize=13;" vertex="1" parent="1">
          <mxGeometry x="520" y="870" width="120" height="60" as="geometry" />
        </mxCell>
        <mxCell id="IXUGLaKaAVVbTnulbap0-78" value="จบ" style="whiteSpace=wrap;html=1;fontSize=16;rounded=1;" vertex="1" parent="1">
          <mxGeometry x="320" y="970" width="120" height="60" as="geometry" />
        </mxCell>
      </root>
    </mxGraphModel>
  </diagram>
</mxfile>
